#!OML:ASF F:\VICON\USERDATA\INSTALL\rory3\rory3.ASF
:FULLY-SPECIFIED
:DEGREES
1
root 1.08042 17.8284 -16.9937 6.34473 -2.99731 0.302943
lowerback 5.47012 -0.669603 -1.79992
upperback -0.631003 -0.938187 2.08211
thorax -3.65741 -0.409046 3.24544
lowerneck -17.1049 -5.44582 -10.52
upperneck 17.1108 -6.22637 7.14669
head 8.72573 -2.90061 3.35759
rclavicle -8.19987e-015 -1.39149e-014
rhumerus -30.914 -5.45989 -82.4366
rradius 33.4629
rwrist 3.2434
rhand -9.74784 14.8063
rfingers 7.12502
rthumb 16.2265 -14.5347
lclavicle -8.19987e-015 -1.39149e-014
lhumerus -31.4083 5.14802 84.9984
lradius 32.0268
lwrist -8.10133
lhand -16.6856 22.4166
lfingers 7.12502
lthumb 9.53868 52.1807
rfemur -11.1686 6.17772 20.9577
rtibia 21.3649
rfoot -11.3781 -9.34931
rtoes 6.853
lfemur -11.1786 -2.02291 -21.4284
ltibia 20.4526
lfoot -11.7707 7.20809
ltoes 2.82152
2
root 1.08108 17.8284 -16.9955 6.3651 -2.88598 0.34592
lowerback 5.49294 -0.700149 -1.81211
upperback -0.654916 -0.98019 2.07154
thorax -3.69213 -0.428978 3.24567
lowerneck -17.1573 -5.4307 -10.5445
upperneck 17.1792 -6.19518 7.13965
head 8.75596 -2.88758 3.36326
rclavicle -1.93318e-014 -1.59028e-015
rhumerus -30.9455 -5.52807 -82.4039
rradius 33.4114
rwrist 3.39081
rhand -9.93731 15.0524
rfingers 7.12502
rthumb 16.044 -14.3033
lclavicle -1.93318e-014 -1.59028e-015
lhumerus -31.3987 5.23064 84.9918
lradius 31.9516
lwrist -8.30071
lhand -18.3417 20.8666
lfingers 7.12502
lthumb 7.94051 50.6975
rfemur -11.1987 6.06838 20.9218
rtibia 21.3872
rfoot -11.3259 -9.37487
rtoes 6.68702
lfemur -11.2193 -2.02174 -21.4568
ltibia 20.4452
lfoot -11.7968 7.0544
ltoes 3.05238
3
root 1.08138 17.83 -16.9962 6.38224 -2.87398 0.340712
lowerback 5.46015 -0.71325 -1.80114
upperback -0.639757 -0.996677 2.0731
thorax -3.65694 -0.438122 3.24155
lowerneck -17.2014 -5.44211 -10.5614
upperneck 17.1738 -6.19912 7.12923
head 8.76265 -2.89062 3.36114
rclavicle -6.4605e-016 5.96354e-015
rhumerus -30.9238 -5.53742 -82.3835
rradius 33.3179
rwrist 3.55136
rhand -10.0086 15.5103
rfingers 7.12502
rthumb 15.9754 -13.8509
lclavicle -6.4605e-016 5.96354e-015
lhumerus -31.3866 5.28316 84.9823
lradius 31.9363
lwrist -8.29399
lhand -18.4202 20.9905
lfingers 7.12502
lthumb 7.86481 50.8242
rfemur -11.2151 6.08631 20.9237
rtibia 21.3876
rfoot -11.2775 -9.39523
rtoes 6.71424
lfemur -11.2883 -1.91567 -21.4525
ltibia 20.5198
lfoot -11.8656 6.94589
ltoes 3.09598
4
root 1.08227 17.8275 -16.9952 6.36813 -2.88792 0.334405
lowerback 5.46355 -0.709278 -1.76425
upperback -0.636377 -0.990099 2.04079
thorax -3.65691 -0.435953 3.18659
lowerneck -17.2802 -5.44103 -10.5524
upperneck 17.258 -6.20618 7.17752
head 8.80734 -2.88724 3.37502
rclavicle -9.44227e-016 9.54166e-015
rhumerus -30.9501 -5.57145 -82.414
rradius 33.2627
rwrist 3.57248
rhand -10.0678 15.8228
rfingers 7.12502
rthumb 15.9184 -13.543
lclavicle -9.44227e-016 9.54166e-015
lhumerus -31.4224 5.16607 84.9658
lradius 32.0001
lwrist -8.20635
lhand -18.2511 21.3815
lfingers 7.12502
lthumb 8.028 51.209
rfemur -11.1716 6.04252 20.9331
rtibia 21.3549
rfoot -11.2344 -9.37172
rtoes 6.47346
lfemur -11.2943 -1.81333 -21.4692
ltibia 20.612
lfoot -11.8936 6.90085
ltoes 3.0179
5
root 1.08339 17.8237 -16.9951 6.36148 -2.94137 0.340495
lowerback 5.4453 -0.687638 -1.81792
upperback -0.635839 -0.963546 2.07255
thorax -3.64655 -0.421511 3.24735
lowerneck -17.2574 -5.44971 -10.666
upperneck 17.2235 -6.19613 7.21269
head 8.79571 -2.88672 3.40712
rclavicle 9.0944e-015 -2.94201e-014
rhumerus -30.9517 -5.5 -82.3694
rradius 33.2393
rwrist 3.50535
rhand -10.2038 15.9473
rfingers 7.12502
rthumb 15.7874 -13.4289
lclavicle 9.0944e-015 -2.94201e-014
lhumerus -31.4564 5.18832 85.0201
lradius 32.0599
lwrist -8.26277
lhand -18.2537 21.1707
lfingers 7.12502
lthumb 8.02549 50.9983
rfemur -11.1391 6.00315 20.9285
rtibia 21.2882
rfoot -11.1868 -9.31205
rtoes 5.57266
lfemur -11.3329 -1.78875 -21.5
ltibia 20.7297
lfoot -11.8442 6.9057
ltoes 2.95599
6
root 1.08443 17.8195 -16.9957 6.34617 -2.97439 0.266764
lowerback 5.41876 -0.676049 -1.80651
upperback -0.616714 -0.944999 2.13497
thorax -3.61228 -0.412671 3.30345
lowerneck -17.2034 -5.49418 -10.7529
upperneck 17.1169 -6.23336 7.20497
head 8.75631 -2.91116 3.41323
rclavicle 7.25564e-015 9.93923e-015
rhumerus -30.9364 -5.47576 -82.3155
rradius 33.23
rwrist 3.53365
rhand -10.2087 15.888
rfingers 7.12502
rthumb 15.7826 -13.4886
lclavicle 7.25564e-015 9.93923e-015
lhumerus -31.4381 5.27395 85.0553
lradius 32.0602
lwrist -8.43718
lhand -18.5014 20.6049
lfingers 7.12502
lthumb 7.7864 50.4415
rfemur -11.0922 5.96583 21.0384
rtibia 21.2167
rfoot -10.9945 -9.34947
rtoes 3.49709
lfemur -11.3826 -1.81775 -21.4096
ltibia 20.8282
lfoot -11.8952 6.93996
ltoes 3.07516
7
root 1.08527 17.817 -16.9973 6.29079 -2.95304 0.231397
lowerback 5.44714 -0.668061 -1.75509
upperback -0.533168 -0.931981 2.1283
thorax -3.54347 -0.409293 3.26569
lowerneck -17.3529 -5.51992 -10.7715
upperneck 17.1334 -6.26325 7.27547
head 8.79451 -2.91605 3.4345
rclavicle 2.88238e-015 -1.27222e-014
rhumerus -30.8514 -5.44201 -82.3405
rradius 33.2832
rwrist 3.42367
rhand -10.1689 15.4638
rfingers 7.12502
rthumb 15.821 -13.9097
lclavicle 2.88238e-015 -1.27222e-014
lhumerus -31.2429 5.27341 85.0565
lradius 31.9099
lwrist -8.51603
lhand -18.6851 20.0267
lfingers 7.12502
lthumb 7.60914 49.8698
rfemur -10.9887 5.9279 21.1012
rtibia 21.1308
rfoot -10.8007 -9.37132
rtoes 2.74875
lfemur -11.3635 -1.93674 -21.3536
ltibia 20.8933
lfoot -12.04 7.05241
ltoes 3.3174
8
root 1.08751 17.8186 -16.9965 6.30509 -2.86776 0.25401
lowerback 5.45332 -0.681661 -1.74034
upperback -0.533784 -0.949923 2.10691
thorax -3.5469 -0.418643 3.23672
lowerneck -17.4805 -5.49942 -10.8023
upperneck 17.2683 -6.23874 7.3651
head 8.86496 -2.89547 3.47351
rclavicle 1.47101e-014 -1.43125e-014
rhumerus -30.9211 -5.48689 -82.3452
rradius 33.3786
rwrist 3.40127
rhand -10.1555 15.3665
rfingers 7.12502
rthumb 15.8339 -14.006
lclavicle 1.47101e-014 -1.43125e-014
lhumerus -31.2477 5.16766 85.0872
lradius 32.0336
lwrist -8.29989
lhand -20.2727 18.1752
lfingers 7.12502
lthumb 6.07656 48.068
rfemur -10.9518 5.86899 21.0767
rtibia 21.051
rfoot -10.7813 -9.43206
rtoes 2.80866
lfemur -11.3869 -2.01709 -21.3829
ltibia 20.9314
lfoot -12.1369 7.08233
ltoes 2.99147
9
root 1.08843 17.8191 -16.995 6.32385 -2.80711 0.256923
lowerback 5.46454 -0.7318 -1.76991
upperback -0.608294 -1.01654 2.15845
thorax -3.62452 -0.448677 3.31391
lowerneck -17.3679 -5.42951 -10.9391
upperneck 17.3126 -6.12346 7.3811
head 8.85382 -2.85172 3.51959
rclavicle 1.69961e-014 -2.78299e-014
rhumerus -31.0655 -5.34361 -82.2976
rradius 33.4459
rwrist 3.35304
rhand -10.0937 15.5352
rfingers 7.12502
rthumb 15.8934 -13.8326
lclavicle 1.69961e-014 -2.78299e-014
lhumerus -31.4806 5.30774 85.1139
lradius 32.271
lwrist -8.20151
lhand -21.8503 16.6239
lfingers 7.12502
lthumb 4.55329 46.5549
rfemur -10.9533 5.89366 21.0774
rtibia 21.0321
rfoot -10.8186 -9.56698
rtoes 2.62365
lfemur -11.4066 -1.97392 -21.391
ltibia 20.9353
lfoot -12.1279 7.00337
ltoes 2.90361
10
root 1.08819 17.8187 -16.9951 6.33151 -2.80289 0.262167
lowerback 5.46854 -0.761434 -1.78461
upperback -0.648446 -1.05658 2.16496
thorax -3.66523 -0.467144 3.33304
lowerneck -17.2803 -5.40732 -10.9983
upperneck 17.3168 -6.09411 7.4135
head 8.83978 -2.84056 3.54589
rclavicle -8.44835e-015 1.27222e-014
rhumerus -31.1244 -5.36446 -82.2858
rradius 33.4351
rwrist 3.42134
rhand -9.94642 15.6457
rfingers 7.12502
rthumb 16.0352 -13.7107
lclavicle -8.44835e-015 1.27222e-014
lhumerus -31.6202 5.36399 85.083
lradius 32.3494
lwrist -8.27101
lhand -21.851 16.6423
lfingers 7.12502
lthumb 4.55268 46.5734
rfemur -10.9744 5.89969 21.0726
rtibia 21.0436
rfoot -10.8564 -9.59077
rtoes 2.55942
lfemur -11.4343 -1.93896 -21.3928
ltibia 20.9242
lfoot -12.0613 6.95572
ltoes 3.20576
11
root 1.08822 17.8173 -16.9956 6.33412 -2.85438 0.256594
lowerback 5.42452 -0.732815 -1.75102
upperback -0.592983 -1.01779 2.11965
thorax -3.58697 -0.45082 3.26189
lowerneck -17.4035 -5.4456 -10.9731
upperneck 17.3443 -6.1502 7.4545
head 8.87732 -2.85843 3.54679
rclavicle 8.24956e-015 2.46493e-014
rhumerus -31.0562 -5.42397 -82.3341
rradius 33.4469
rwrist 3.35814
rhand -9.97212 15.5875
rfingers 7.12502
rthumb 16.0105 -13.7709
lclavicle 8.24956e-015 2.46493e-014
lhumerus -31.5308 5.30301 85.045
lradius 32.33
lwrist -8.35454
lhand -21.8178 16.3691
lfingers 7.12502
lthumb 4.58469 46.2995
rfemur -10.9829 5.82412 21.0734
rtibia 21.0477
rfoot -10.8414 -9.46648
rtoes 2.3535
lfemur -11.4465 -1.86275 -21.3859
ltibia 20.9167
lfoot -12.0162 6.89186
ltoes 2.9398
12
root 1.08972 17.8164 -16.9939 6.35729 -2.91145 0.243561
lowerback 5.36659 -0.695082 -1.73448
upperback -0.596714 -0.966523 2.10063
thorax -3.56229 -0.426154 3.22744
lowerneck -17.3057 -5.44432 -10.9156
upperneck 17.2792 -6.16705 7.43373
head 8.83655 -2.86634 3.52854
rclavicle 7.8023e-015 -7.15625e-015
rhumerus -31.0855 -5.46497 -82.3255
rradius 33.4354
rwrist 3.31136
rhand -9.9455 15.3821
rfingers 7.12502
rthumb 16.0361 -13.9743
lclavicle 7.8023e-015 -7.15625e-015
lhumerus -31.4477 5.18241 85.083
lradius 32.1798
lwrist -8.22684
lhand -21.8781 16.5716
lfingers 7.12502
lthumb 4.52652 46.5033
rfemur -11.0163 5.71882 21.0717
rtibia 21.0696
rfoot -10.8023 -9.29712
rtoes 2.2198
lfemur -11.4284 -1.94512 -21.3797
ltibia 20.8663
lfoot -11.9839 6.98048
ltoes 3.14858
